<svg width="200" height="79" viewBox="0 0 200 79" fill="none" xmlns="http://www.w3.org/2000/svg">
<path d="M194.633 19.0403L195.32 19.0364L195.323 16.6259H196.224L196.227 16.0156H193.733L193.737 16.6259H194.633V19.0403Z" fill="white"/>
<path d="M197.509 16.9959L198.344 18.3232L198.401 18.327L199.237 16.9997V19.0403L199.881 19.0364V16.0194H199.179L198.382 17.2934L197.589 16.0156H196.864L196.86 19.0364L197.513 19.0403L197.509 16.9959Z" fill="white"/>
<path d="M98.2947 16.2716V75.6314H81.4209V66.3134C83.4614 62.6594 84.5218 58.3761 84.5218 53.6046C84.5218 48.3601 83.3318 44.3515 81.4209 41.22V16.2716H98.2947ZM180.429 38.2259C175.276 36.6392 172.118 35.514 172.118 32.6076C172.118 30.1818 175.368 28.8392 177.606 28.8392C181.741 28.8392 184.091 30.2276 187.226 32.9624L187.779 33.4391L196.311 22.6031L195.789 22.1721C190.532 17.8987 183.976 15.5444 177.202 15.4973C166.862 15.4973 155.877 21.867 155.877 33.6794C155.877 46.4111 165.699 49.5578 172.873 51.8501C178.041 53.5054 181.207 54.665 181.207 57.5256C181.207 60.8058 176.676 61.8699 174.483 61.8699C170.287 61.8699 166.789 60.3824 164.356 57.5714L163.807 56.9344L158.177 64.105L149.305 16.2601H135.365L129.777 40.4305L123.674 9.82182H110.042L98.9813 75.6467H115.05L118.289 54.581L122.065 75.6467H136.978L140.964 54.4132L143.676 75.6467H160.458L159.749 72.5381L159.882 72.5992C164.587 74.9795 169.797 76.1886 175.07 76.1234C188.675 76.1234 197.459 68.4303 197.459 56.5339C197.444 43.4818 187.611 40.4305 180.429 38.2259V38.2259ZM61.5071 32.1232C55.2976 30.2162 49.9311 28.5456 49.9311 23.5223C49.9311 19.2047 55.004 17.1908 58.4443 17.1908C63.7575 17.1908 66.9766 18.9567 70.4323 21.7983L71.0082 22.2674L79.7464 11.1797L79.1552 10.7296C73.0134 6.15678 65.5786 3.65138 57.9218 3.57422C45.6974 3.57422 32.6949 11.0309 32.6949 24.8534C32.6949 39.7287 43.4661 43.1614 52.9634 46.2128C59.1843 48.1999 64.5584 49.9201 64.5584 54.8633C64.5584 60.001 58.3909 61.7288 54.4967 61.7288C45.3007 61.7288 38.7442 55.1188 36.6998 53.1698L28.0569 65.604C35.6471 71.8821 41.9557 74.8838 48.0584 76.0395C50.427 76.4453 52.8258 76.6495 55.229 76.6498C62.6628 76.6498 69.3414 74.6092 73.9832 70.9095C79.0942 66.8588 81.7946 60.8744 81.7946 53.6046C81.7946 38.3594 71.0196 35.0373 61.5071 32.1042V32.1232Z" fill="white"/>
<path d="M81.4058 13.67V0.312761L84.7165 0V10.6301H89.0951L89.0722 13.6814L81.4058 13.67ZM89.1294 8.33014C89.1294 5.23303 91.7574 2.9903 94.6981 2.9903C97.6389 2.9903 100.286 5.22922 100.286 8.33014C100.286 11.4311 97.6579 13.67 94.6981 13.67C91.7383 13.67 89.1294 11.4425 89.1294 8.33395V8.33014ZM94.6981 10.8399C95.1946 10.8361 95.6788 10.6854 96.0897 10.4067C96.5006 10.1281 96.8198 9.73401 97.0071 9.27418C97.1943 8.81435 97.2411 8.30938 97.1417 7.82297C97.0422 7.33655 96.801 6.89047 96.4483 6.54101C96.0957 6.19154 95.6474 5.95434 95.1601 5.85932C94.6728 5.7643 94.1683 5.81572 93.7102 6.0071C93.2521 6.19847 92.8609 6.52123 92.586 6.93466C92.3111 7.34808 92.1648 7.83366 92.1655 8.33014C92.1755 8.99696 92.4461 9.63339 92.9194 10.1032C93.3928 10.573 94.0312 10.8388 94.6981 10.8437V10.8399ZM101.789 10.2181C102.074 10.5122 102.416 10.745 102.795 10.9024C103.173 11.0598 103.58 11.1384 103.989 11.1335C104.493 11.1335 105.351 11.0573 105.351 10.3364C105.351 8.95184 100.679 10.3364 100.679 6.26667C100.679 4.02776 102.49 2.99412 104.493 2.99412C105.737 3.03883 106.922 3.53822 107.823 4.39773L106.129 6.10266C105.671 5.75076 105.113 5.55314 104.535 5.53817C104.153 5.53817 103.501 5.61445 103.501 6.1408C103.501 7.81522 108.174 6.1408 108.174 10.3059C108.174 12.5066 106.209 13.6776 104.241 13.6776C102.784 13.7555 101.352 13.2661 100.248 12.3121L101.789 10.2181Z" fill="white"/>
<path d="M30.5819 28.1719L35.4908 43.2645L26.4474 42.0287L25.5625 32.9472L30.5819 28.1719Z" fill="#478012"/>
<path d="M35.491 43.2631L34.6939 44.457L34.6595 44.4341L24.2583 47.6952L26.4476 42.0273L35.491 43.2631Z" fill="#76FF83"/>
<path d="M34.6937 44.4584L30.849 50.2483L30.8032 50.2178L20.7415 56.8011L24.2581 47.6967L34.6593 44.4355L34.6937 44.4584Z" fill="#C7FFBD"/>
<path d="M30.8489 50.2473L12.7773 77.4309L20.7413 56.8L30.8031 50.2168L30.8489 50.2473Z" fill="#5EE903"/>
<path d="M28.8541 22.8477L30.5819 28.1875L25.5548 32.9476L24.8835 25.8875C26.2725 24.9627 27.5989 23.9472 28.8541 22.8477V22.8477Z" fill="#5EEA03"/>
<path d="M25.5626 32.9473L26.4474 42.0288L17.4651 40.8006L17.488 40.6442L25.5626 32.9473Z" fill="#35BA2A"/>
<path d="M26.4475 42.0289L24.2582 47.6968H24.2391C24.2391 47.6968 13.4336 51.6177 10.3326 52.5103L9.07397 39.668L17.4651 40.8122L26.4475 42.0289Z" fill="#5EE903"/>
<path d="M22.7629 4.11133L28.8656 22.8465C27.6108 23.95 26.2844 24.9693 24.8951 25.8978L22.7629 4.11133Z" fill="#76FF83"/>
<path d="M24.2579 47.6953L20.7413 56.7997L20.7146 56.8226L11.4614 64.0085L10.3171 52.5126C13.4181 51.6201 24.2236 47.6991 24.2236 47.6991L24.2579 47.6953Z" fill="#258402"/>
<path d="M24.8837 25.8867L25.555 32.9467L17.488 40.6437L17.4651 40.8001L9.07397 39.6559V39.5834L11.9422 32.1572C16.5107 30.6395 20.8613 28.5315 24.8837 25.8867V25.8867Z" fill="#F6F7F5"/>
<path d="M20.7148 56.8237L20.7415 56.8008L12.7776 77.4316L11.4617 64.0096L20.7148 56.8237Z" fill="#134401"/>
<path d="M22.763 4.11133L24.8837 25.8864C20.8589 28.5317 16.5057 30.6398 11.9346 32.1569L22.763 4.11133Z" fill="#C7FFBD"/>
<path d="M11.4617 64.0098L12.7776 77.4318L9.14648 66.3478L11.3091 64.1242L11.4617 64.0098Z" fill="#5EE903"/>
<path d="M22.763 4.11133L11.9345 32.1569C8.87041 33.2243 5.72489 34.0419 2.52881 34.6018L22.763 4.11133Z" fill="#1EA805"/>
<path d="M10.3325 52.5137L11.4767 64.0096L11.3242 64.124L9.15391 66.3667L5.07275 53.9058C5.40459 53.8334 7.50619 53.3528 10.321 52.5366L10.3325 52.5137Z" fill="#35BA2A"/>
<path d="M9.0739 39.6671L10.3326 52.5246H10.2982C7.48339 53.3408 5.38179 53.8214 5.04995 53.8939L0 38.416L9.0739 39.6671Z" fill="#4E801A"/>
<path d="M11.9345 32.1562L9.06627 39.5824V39.6549L0 38.4153L2.52879 34.6011C5.72487 34.0413 8.87039 33.2237 11.9345 32.1562V32.1562Z" fill="#134401"/>
</svg>
